<?xml version="1.0"?>
<svg xmlns="http://www.w3.org/2000/svg" xmlns:xlink="http://www.w3.org/1999/xlink" xmlns:svgjs="http://svgjs.com/svgjs" version="1.1" width="512" height="512" x="0" y="0" viewBox="0 0 512.002 512.002" style="enable-background:new 0 0 512 512" xml:space="preserve"><g><g xmlns="http://www.w3.org/2000/svg"><g><path d="m510.947 317.793-40.001-80c-1.694-3.388-5.156-5.528-8.944-5.528h-46.311l-138.478-138.477c-3.271-3.271-7.115-5.625-11.212-7.066v-21.722h50c3.667 0 7.039-2.006 8.788-5.229 1.75-3.223 1.596-7.144-.401-10.219l-11.077-17.052 11.077-17.053c1.997-3.075 2.151-6.996.401-10.219-1.749-3.221-5.121-5.228-8.788-5.228h-60c-5.522 0-10 4.477-10 10v76.721c-4.097 1.442-7.941 3.796-11.212 7.066l-138.477 138.478h-46.31c-3.788 0-7.25 2.14-8.944 5.528l-40.002 80c-1.55 3.1-1.385 6.781.438 9.729s5.041 4.743 8.507 4.743h10.001v149.736c0 5.523 4.478 10 10 10h88.734v10.001c0 5.523 4.478 10 10 10h254.531c5.522 0 10-4.477 10-10v-10.001h.001 88.733c5.522 0 10-4.477 10-10v-149.736h10.001c3.466 0 6.685-1.794 8.507-4.743 1.822-2.948 1.987-6.63.438-9.729zm-244.946-297.793h31.58l-4.581 7.053c-2.151 3.313-2.151 7.582 0 10.895l4.581 7.052h-31.58zm219.821 292.265h-92.555v-26.149c1.361.187 2.743.288 4.141.288 8.013 0 15.546-3.121 21.212-8.786s8.786-13.199 8.786-21.212c0-1.398-.101-2.78-.288-4.141h28.703zm-429.639-60h28.702c-.187 1.361-.288 2.743-.288 4.141 0 8.013 3.12 15.546 8.786 21.212s13.199 8.786 21.212 8.786c1.398 0 2.78-.101 4.141-.288v26.149h-92.555zm62.553 80v99.735h-78.735v-99.735zm-78.735 139.736v-20.001h78.734v20.001zm155.999 0h120.001v20.001h-120zm25-100h25.001v79.999h-25zm70.001 80h-25v-79.999h25v79.999c0-.001 0-.001 0 0zm45 40.001v-20.001c0-11.028-8.972-20-19.999-20h-5.001v-80c0-11.028-8.972-20-20-20h-70.001c-11.027 0-19.999 8.972-19.999 20v80h-5.001c-11.027 0-19.999 8.972-19.999 20v20.001h-37.266v-217.313l28.883-28.882c3.905-3.905 3.905-10.237 0-14.143-3.905-3.904-10.235-3.905-14.143 0l-31.812 31.811c-1.888 1.889-4.398 2.928-7.069 2.928s-5.182-1.04-7.069-2.928c-1.889-1.888-2.929-4.398-2.929-7.069 0-2.67 1.04-5.181 2.929-7.069l141.407-141.407c1.888-1.889 4.398-2.928 7.069-2.928s5.182 1.04 7.069 2.928l141.406 141.406c1.889 1.888 2.929 4.399 2.929 7.069 0 2.671-1.04 5.181-2.929 7.069-1.888 1.889-4.398 2.928-7.069 2.928s-5.182-1.04-7.069-2.928l-127.266-127.264c-3.906-3.905-10.236-3.905-14.143 0l-31.815 31.815c-3.905 3.905-3.905 10.237 0 14.143 3.906 3.905 10.236 3.905 14.143 0l24.744-24.745 117.266 117.266v217.313zm136-20.001h-78.733-.001v-20.001h.001 78.733zm0-139.736v99.735h-78.733-.001v-99.735z" fill="#5337bc" data-original="#000000" style=""/><path d="m256.001 263.641c17.921 0 32.5-14.58 32.5-32.501 0-17.92-14.579-32.5-32.5-32.5s-32.5 14.579-32.5 32.5 14.579 32.501 32.5 32.501zm0-45c6.893 0 12.5 5.607 12.5 12.5s-5.607 12.5-12.5 12.5-12.5-5.608-12.5-12.5c0-6.893 5.608-12.5 12.5-12.5z" fill="#5337bc" data-original="#000000" style=""/><path d="m301.001 312.265h-89.999c-5.522 0-10 4.477-10 10s4.478 10 10 10h89.999c5.522 0 10-4.477 10-10s-4.477-10-10-10z" fill="#5337bc" data-original="#000000" style=""/><path d="m192.368 196.913h-.007c-5.522 0-9.996 4.477-9.996 10s4.48 10 10.003 10 10-4.477 10-10-4.477-10-10-10z" fill="#5337bc" data-original="#000000" style=""/></g></g></g></svg>
